<svg xmlns="http://www.w3.org/2000/svg" viewBox="490 8 85 85">
  <defs>
    <style>
      .st1 {
        stroke: #48c0ee;
        stroke-width: 3px;
        fill: none;
      }
    </style>
  </defs>
  <g id="X">
    <path class="st1"
      d="M568.33,76.14c-.38,0-.77-.15-1.06-.44l-62.81-62.81c-.59-.59-.59-1.54,0-2.12.59-.59,1.54-.59,2.12,0l62.81,62.81c.59.59.59,1.54,0,2.12-.29.29-.68.44-1.06.44Z" />
    <path class="st1"
      d="M556.87,87.59c-.38,0-.77-.15-1.06-.44l-62.81-62.81c-.59-.59-.59-1.54,0-2.12.59-.59,1.54-.59,2.12,0l62.81,62.81c.59.59.59,1.54,0,2.12-.29.29-.68.44-1.06.44Z" />
    <path class="st1"
      d="M553.37,39.74c-.38,0-.77-.15-1.06-.44-.59-.59-.59-1.54,0-2.12l15.27-15.27c.59-.59,1.54-.59,2.12,0s.59,1.54,0,2.12l-15.27,15.27c-.29.29-.68.44-1.06.44Z" />
    <path class="st1"
      d="M541.91,28.29c-.38,0-.77-.15-1.06-.44-.59-.59-.59-1.54,0-2.12l15.27-15.27c.59-.59,1.54-.59,2.12,0,.59.59.59,1.54,0,2.12l-15.27,15.27c-.29.29-.68.44-1.06.44Z" />
    <path class="st1"
      d="M505.2,87.91c-.38,0-.77-.15-1.06-.44-.59-.59-.59-1.54,0-2.12l14.33-14.33c.59-.59,1.54-.59,2.12,0,.59.59.59,1.54,0,2.12l-14.33,14.33c-.29.29-.68.44-1.06.44Z" />
    <path class="st1"
      d="M493.74,76.46c-.38,0-.77-.15-1.06-.44-.59-.59-.59-1.54,0-2.12l14.33-14.33c.59-.59,1.54-.59,2.12,0s.59,1.54,0,2.12l-14.33,14.33c-.29.29-.68.44-1.06.44Z" />
  </g>
</svg>